<svg width="29" height="29" viewBox="0 0 29 29" fill="none" xmlns="http://www.w3.org/2000/svg">
<g id="Calendar / Calendar_Event">
<path id="Vector" d="M5.29297 9.74687H24.1842M5.29297 9.74687V20.1373C5.29297 21.4598 5.29297 22.1207 5.55035 22.6258C5.77674 23.0701 6.13773 23.4318 6.58205 23.6582C7.08669 23.9153 7.74764 23.9153 9.06756 23.9153H20.4096C21.7295 23.9153 22.3895 23.9153 22.8941 23.6582C23.3385 23.4318 23.7007 23.0701 23.9271 22.6258C24.1842 22.1212 24.1842 21.4612 24.1842 20.1413V9.74687M5.29297 9.74687V8.80254C5.29297 7.48003 5.29297 6.81828 5.55035 6.31315C5.77674 5.86882 6.13773 5.50783 6.58205 5.28144C7.08719 5.02406 7.74893 5.02406 9.07144 5.02406H10.0158M24.1842 9.74687V8.79866C24.1842 7.47873 24.1842 6.81778 23.9271 6.31315C23.7007 5.86882 23.3385 5.50783 22.8941 5.28144C22.389 5.02406 21.7287 5.02406 20.4062 5.02406H19.4614M10.0158 5.02406H19.4614M10.0158 5.02406V2.66266M19.4614 5.02406V2.66266M14.4434 19.1925C14.6064 19.1925 14.7386 19.0603 14.7386 18.8973V14.7648C14.7386 14.6018 14.6064 14.4697 14.4434 14.4697H10.3109C10.1479 14.4697 10.0158 14.6018 10.0158 14.7648V18.8973C10.0158 19.0603 10.1479 19.1925 10.3109 19.1925H14.4434Z" stroke="white" stroke-width="1.41684" stroke-linecap="round" stroke-linejoin="round"/>
</g>
</svg>
