<svg width="25" height="25" viewBox="0 0 25 25" fill="none" xmlns="http://www.w3.org/2000/svg">
<g id="Telegram-Symbol 1" clip-path="url(#clip0_366_3243)">
<path id="Subtract" fill-rule="evenodd" clip-rule="evenodd" d="M4.04297 4.24917C6.29109 2.01697 9.34547 0.761719 12.5273 0.761719C15.7092 0.761719 18.7636 2.01697 21.0117 4.24917C23.2617 6.48135 24.5273 9.51205 24.5273 12.6687C24.5273 15.8254 23.2617 18.8561 21.0117 21.0883C18.7636 23.3205 15.7092 24.5758 12.5273 24.5758C9.34547 24.5758 6.29109 23.3205 4.04297 21.0883C1.79297 18.8561 0.527344 15.8254 0.527344 12.6687C0.527344 9.51205 1.79297 6.48135 4.04297 4.24917ZM12.1485 12.249C12.3617 12.4433 12.6879 12.4433 12.9011 12.249L18.3703 7.26358C18.5212 7.12609 18.4239 6.875 18.2198 6.875L6.82981 6.875C6.62572 6.875 6.52845 7.12609 6.67929 7.26358L12.1485 12.249ZM6.59645 8.76467C6.46804 8.64761 6.26172 8.73872 6.26172 8.91247V17.1677C6.26172 17.7847 6.76192 18.2849 7.37895 18.2849H17.6729C18.2899 18.2849 18.7901 17.7847 18.7901 17.1677V8.91446C18.7901 8.7407 18.5838 8.6496 18.4554 8.76665L12.8638 13.8635C12.673 14.0375 12.381 14.0375 12.1902 13.8635L6.59645 8.76467Z" fill="white"/>
</g>
<defs>
<clipPath id="clip0_366_3243">
<rect width="24" height="24" fill="white" transform="translate(0.527344 0.580078)"/>
</clipPath>
</defs>
</svg>
