<svg width="29" height="29" viewBox="0 0 29 29" fill="none" xmlns="http://www.w3.org/2000/svg">
<g id="File / File_Edit">
<path id="Vector" d="M7.09968 13.4367V7.76938C7.09968 6.44687 7.09968 5.78512 7.35706 5.27999C7.58346 4.83567 7.94444 4.47468 8.38877 4.24828C8.8939 3.99091 9.55565 3.99091 10.8782 3.99091H16.1612C16.3059 3.99091 16.4325 3.99091 16.5453 3.99193M23.6284 11.0751C23.6295 11.188 23.6295 11.3148 23.6295 11.4596V21.4695C23.6295 22.7894 23.6295 23.4494 23.3724 23.9541C23.146 24.3984 22.784 24.76 22.3397 24.9864C21.8351 25.2435 21.1748 25.2435 19.8549 25.2435L15.3646 25.2435M23.6284 11.0751C23.6252 10.738 23.6127 10.5246 23.5638 10.321C23.5059 10.0801 23.4101 9.84971 23.2807 9.63843C23.1346 9.40013 22.9316 9.19648 22.5232 8.78807L18.8329 5.09781C18.4248 4.68966 18.2202 4.48511 17.982 4.33912C17.7707 4.20965 17.5405 4.114 17.2996 4.05615C17.0959 4.00725 16.8825 3.995 16.5453 3.99193M23.6284 11.0751H23.6297M23.6284 11.0751H20.3199C19 11.0751 18.339 11.0751 17.8344 10.818C17.3901 10.5916 17.0291 10.2296 16.8027 9.78531C16.5453 9.28017 16.5453 8.61938 16.5453 7.29687V3.99193M10.6418 16.9786L13.0032 19.34M4.73828 25.2435V22.2918L13.5935 13.4365L16.5453 16.3883L7.69003 25.2435H4.73828Z" stroke="white" stroke-width="1.41684" stroke-linecap="round" stroke-linejoin="round"/>
</g>
</svg>
