<svg width="83" height="40" viewBox="0 0 83 40" fill="none" xmlns="http://www.w3.org/2000/svg">
<path d="M35.0231 40C27.0887 40 22.2864 36.8863 22.0776 30.9652C22.0776 30.71 22.2342 30.5568 22.4952 30.5568H29.2811C29.5421 30.5568 29.6987 30.71 29.6987 30.9652C29.8553 33.9257 31.8389 35.2529 35.5451 35.2529C38.6249 35.2529 40.2953 34.0789 40.2953 32.0371C40.2953 27.0348 22.704 31.884 22.704 20.8584C22.704 15.3967 27.1931 12.4872 34.4489 12.4872C41.548 12.4872 46.246 15.2436 46.7158 20.8074C46.768 21.0626 46.6114 21.2158 46.3504 21.2158H39.8255C39.5645 21.2158 39.4601 21.1137 39.4079 20.8584C38.9903 18.5615 37.5809 17.1322 34.3445 17.1322C31.7867 17.1322 30.1685 18.051 30.1685 20.297C30.1685 25.2993 47.7598 20.1949 47.7598 31.3735C47.7598 36.8863 42.4354 40 35.0231 40Z" fill="white"/>
<path d="M64.406 13.9675C64.5104 13.8144 64.7192 13.7123 64.928 13.7123H72.5492C72.9146 13.7123 72.9668 13.9675 72.758 14.2227L64.6148 23.1554L74.2196 39.4896C74.3762 39.7448 74.2718 40 73.9586 40H65.7632C65.5544 40 65.3978 39.8979 65.2934 39.6937L62.5268 34.4872L60.1471 30.3422C59.6794 29.5275 58.5588 29.4318 57.9641 30.1558L56.9431 31.3987C56.7398 31.6461 56.6295 31.9588 56.6316 32.2813L56.6805 39.5916C56.6805 39.8979 56.5239 40 56.2629 40H49.3725C49.1115 40 48.9549 39.8979 48.9549 39.5916L49.1115 22.1345L48.9549 0.408949C48.9549 0.102685 49.1115 0.000594712 49.3725 0.000594712H56.2629C56.5239 0.000594712 56.6805 0.102685 56.6805 0.408949L56.5761 21.2158C56.5761 21.9789 57.5129 22.3258 57.9951 21.7411L64.406 13.9675Z" fill="white"/>
<path d="M82.6335 26.8817L82.7379 39.5916C82.7379 39.8979 82.5813 40 82.3203 40H75.2212C74.9602 40 74.8036 39.8979 74.8036 39.5916L74.908 26.8817L74.8036 14.1206C74.8036 13.8144 74.9602 13.7123 75.2212 13.7123H82.3203C82.5813 13.7123 82.7379 13.8144 82.7379 14.1206L82.6335 26.8817Z" fill="white"/>
<path fill-rule="evenodd" clip-rule="evenodd" d="M0.738281 11.8441C0.738281 11.4135 1.08164 11.0632 1.50477 11.0747C4.74165 11.1625 7.74862 11.8095 10.5257 13.0156C13.5207 14.3164 15.9542 16.0955 17.8261 18.3528C19.698 20.6101 20.634 23.116 20.634 25.8707V38.0429C20.634 39.1173 19.7778 39.9884 18.7217 39.9884H2.48941C1.53889 39.9884 0.768335 39.2044 0.768335 38.2374V26.298C0.768335 25.331 1.53889 24.5471 2.48942 24.5471H8.39899C10.5755 24.5471 12.529 22.5912 11.3721 20.7155C10.607 19.4749 9.44405 18.6149 8.08841 17.8694C5.92343 16.6788 2.80624 16.157 1.43283 15.9749C1.03927 15.9228 0.738281 15.5843 0.738281 15.1805V11.8441ZM6.76256 35.3511C7.60266 36.4287 10.0426 35.8832 12.2124 34.1326C14.3822 32.3819 15.4601 30.0892 14.62 29.0115C13.7799 27.9339 11.3399 28.4794 9.17014 30.23C7.00038 31.9806 5.92247 34.2734 6.76256 35.3511Z" fill="white"/>
<path d="M75.1871 11.08C74.976 11.0869 74.8047 10.912 74.8047 10.6971V8.68175C74.8047 8.46686 74.9761 8.29415 75.1869 8.28045C76.1113 8.22039 76.9116 7.9385 77.5878 7.43479C77.8976 7.20408 78.1448 6.95666 78.3296 6.69254C78.7609 6.07604 78.1365 5.41112 77.3927 5.41112H75.2436C75.0337 5.41112 74.8631 5.23905 74.8612 5.02553L74.8201 0.392606C74.8182 0.176351 74.99 5.47252e-07 75.2026 5.29079e-07L81.3915 0C82.1353 -6.35846e-08 82.7383 0.613423 82.7383 1.37012V5.41112C82.7383 6.46695 82.3651 7.42746 81.6186 8.29265C80.8722 9.15784 79.9018 9.83973 78.7075 10.3383C77.6221 10.7914 76.4486 11.0387 75.1871 11.08Z" fill="white"/>
</svg>
