<svg width="21" height="29" viewBox="0 0 21 29" fill="none" xmlns="http://www.w3.org/2000/svg">
<g id="logo_small" clip-path="url(#clip0_366_1702)">
<path id="Vector" fill-rule="evenodd" clip-rule="evenodd" d="M0.570312 1.22537C0.570312 0.804019 0.912112 0.46133 1.33332 0.472558C4.5555 0.558454 7.54881 1.19149 10.3133 2.37168C13.2947 3.64449 15.7171 5.38526 17.5806 7.59398C19.444 9.80269 20.3757 12.2547 20.3757 14.9501V26.8603C20.3757 27.9117 19.5234 28.7639 18.472 28.7639H2.31349C1.36728 28.7639 0.60023 27.9969 0.60023 27.0507V15.3682C0.60023 14.422 1.36729 13.655 2.31349 13.655H8.19623C10.3629 13.655 12.3075 11.7412 11.1559 9.9059C10.3942 8.69198 9.23654 7.85044 7.88706 7.121C5.73191 5.95607 2.62888 5.44548 1.2617 5.26732C0.869931 5.21627 0.570312 4.88505 0.570312 4.48997V1.22537ZM6.56723 24.2264C7.40352 25.2809 9.83241 24.7471 11.9923 23.0342C14.1522 21.3212 15.2252 19.0778 14.389 18.0233C13.5527 16.9689 11.1238 17.5027 8.96388 19.2156C6.80397 20.9285 5.73095 23.172 6.56723 24.2264Z" fill="white"/>
</g>
<defs>
<clipPath id="clip0_366_1702">
<rect width="19.8358" height="28.326" fill="white" transform="translate(0.570312 0.448792)"/>
</clipPath>
</defs>
</svg>
