<svg width="24" height="25" viewBox="0 0 24 25" fill="none" xmlns="http://www.w3.org/2000/svg">
<g id="Telegram-Symbol 1" clip-path="url(#clip0_366_2427)">
<path id="Vector" d="M12 0.873047C8.81812 0.873047 5.76375 2.1283 3.51562 4.3605C1.26562 6.59268 0 9.62338 0 12.78C0 15.9367 1.26562 18.9674 3.51562 21.1996C5.76375 23.4318 8.81812 24.6871 12 24.6871C15.1819 24.6871 18.2362 23.4318 20.4844 21.1996C22.7344 18.9674 24 15.9367 24 12.78C24 9.62338 22.7344 6.59268 20.4844 4.3605C18.2362 2.1283 15.1819 0.873047 12 0.873047Z" fill="white"/>
<path id="Vector_2" d="M5.43481 12.6543C8.93356 11.1421 11.266 10.1451 12.4323 9.66342C15.766 8.28798 16.4579 8.04909 16.9098 8.04109C17.0091 8.03942 17.2304 8.06379 17.3748 8.1797C17.4948 8.27737 17.5285 8.40947 17.5454 8.50212C17.5604 8.59477 17.5811 8.80593 17.5642 8.97077C17.3842 10.8536 16.6023 15.4225 16.2048 17.5313C16.0379 18.4236 15.706 18.7228 15.3854 18.752C14.6879 18.8156 14.1591 18.2951 13.4841 17.8562C12.4285 17.1691 11.8323 16.7416 10.8067 16.0712C9.62167 15.2965 10.3904 14.8707 11.0654 14.1749C11.2416 13.9927 14.3129 11.2216 14.371 10.9702C14.3785 10.9388 14.386 10.8216 14.3148 10.7598C14.2454 10.6978 14.1422 10.719 14.0672 10.7358C13.9604 10.7596 12.2747 11.8662 9.00474 14.0554C8.52661 14.3817 8.09349 14.5408 7.70349 14.5324C7.27599 14.5233 6.45104 14.2921 5.83792 14.0945C5.08792 13.8521 4.48977 13.7239 4.54227 13.3122C4.56852 13.0978 4.86669 12.8785 5.43481 12.6543Z" fill="#181718"/>
</g>
<defs>
<clipPath id="clip0_366_2427">
<rect width="24" height="24" fill="white" transform="translate(0 0.691406)"/>
</clipPath>
</defs>
</svg>
