<svg width="25" height="25" viewBox="0 0 25 25" fill="none" xmlns="http://www.w3.org/2000/svg">
<g id="Telegram-Symbol 1" clip-path="url(#clip0_366_3229)">
<path id="Subtract" fill-rule="evenodd" clip-rule="evenodd" d="M4.04297 4.24917C6.29109 2.01697 9.34547 0.761719 12.5273 0.761719C15.7092 0.761719 18.7636 2.01697 21.0117 4.24917C23.2617 6.48135 24.5273 9.51205 24.5273 12.6687C24.5273 15.8254 23.2617 18.8561 21.0117 21.0883C18.7636 23.3205 15.7092 24.5758 12.5273 24.5758C9.34547 24.5758 6.29109 23.3205 4.04297 21.0883C1.79297 18.8561 0.527344 15.8254 0.527344 12.6687C0.527344 9.51205 1.79297 6.48135 4.04297 4.24917ZM12.9557 9.55209C11.7895 10.0338 9.457 11.0308 5.95825 12.543C5.39012 12.7672 5.09196 12.9865 5.06571 13.2008C5.01954 13.5629 5.47652 13.7057 6.09746 13.8997C6.18263 13.9263 6.27089 13.9539 6.36135 13.9832C6.97448 14.1807 7.79942 14.412 8.22692 14.4211C8.61692 14.4295 9.05005 14.2704 9.52817 13.9441C12.7982 11.7549 14.4838 10.6483 14.5907 10.6245C14.6657 10.6077 14.7689 10.5865 14.8382 10.6485C14.9095 10.7102 14.9019 10.8274 14.8944 10.8589C14.8502 11.0501 13.0619 12.6999 12.1313 13.5584C11.8388 13.8283 11.631 14.02 11.5888 14.0635C11.4946 14.1606 11.3986 14.2525 11.3064 14.3407C10.7373 14.885 10.3105 15.2933 11.3301 15.9599C11.8245 16.283 12.2191 16.5497 12.6135 16.8163C13.0373 17.1027 13.4608 17.389 14.0076 17.7448C14.1481 17.8362 14.2824 17.9312 14.4131 18.0237C14.9101 18.3752 15.3566 18.6911 15.9089 18.6407C16.2295 18.6115 16.5614 18.3123 16.7282 17.42C17.1257 15.3112 17.9076 10.7422 18.0876 8.85944C18.1045 8.6946 18.0839 8.48344 18.0689 8.39079C18.052 8.29814 18.0182 8.16605 17.8982 8.06837C17.7538 7.95246 17.5326 7.92809 17.4332 7.92977C16.9813 7.93777 16.2895 8.17665 12.9557 9.55209Z" fill="white"/>
</g>
<defs>
<clipPath id="clip0_366_3229">
<rect width="24" height="24" fill="white" transform="translate(0.527344 0.580078)"/>
</clipPath>
</defs>
</svg>
