<svg width="25" height="25" viewBox="0 0 25 25" fill="none" xmlns="http://www.w3.org/2000/svg">
<g id="Telegram-Symbol 2" clip-path="url(#clip0_366_3235)">
<path id="Subtract" fill-rule="evenodd" clip-rule="evenodd" d="M4.04297 4.24917C6.29109 2.01697 9.34547 0.761719 12.5273 0.761719C15.7092 0.761719 18.7636 2.01697 21.0117 4.24917C23.2617 6.48135 24.5273 9.51205 24.5273 12.6687C24.5273 15.8254 23.2617 18.8561 21.0117 21.0883C18.7636 23.3205 15.7092 24.5758 12.5273 24.5758C9.34547 24.5758 6.29109 23.3205 4.04297 21.0883C1.79297 18.8561 0.527344 15.8254 0.527344 12.6687C0.527344 9.51205 1.79297 6.48135 4.04297 4.24917ZM5.72908 12.6063C5.72861 13.8084 6.04268 14.982 6.63996 16.0165L5.67188 19.551L9.28925 18.6024C10.2858 19.146 11.4079 19.4323 12.55 19.4328H12.5528C16.3133 19.4328 19.3746 16.3724 19.3762 12.6114C19.3769 10.7887 18.6676 9.07482 17.3796 7.7856C16.0913 6.49639 14.3781 5.78586 12.5528 5.78516C8.79155 5.78516 5.73073 8.84504 5.72908 12.6063ZM10.8479 9.75556C10.7201 9.47163 10.5859 9.46598 10.4641 9.46104C10.3698 9.45701 10.2625 9.45702 10.1545 9.45703H10.1545L10.1374 9.45703C10.0237 9.45703 9.83884 9.49965 9.68275 9.67033C9.67274 9.68127 9.66155 9.6932 9.64939 9.70617C9.47179 9.89563 9.08594 10.3072 9.08594 11.0921C9.08594 11.925 9.6883 12.7301 9.78023 12.853L9.7821 12.8555C9.78855 12.8641 9.80076 12.8822 9.81858 12.9086L9.8186 12.9086C10.0365 13.2316 11.0927 14.7972 12.6944 15.4289C13.9965 15.9423 14.3608 15.8994 14.6497 15.8654C14.6804 15.8618 14.7102 15.8583 14.7403 15.8555C15.0529 15.8271 15.7491 15.4433 15.891 15.0452C16.0332 14.6471 16.0332 14.3059 15.9906 14.2346C15.9563 14.1774 15.876 14.1386 15.7571 14.0812C15.7282 14.0673 15.6971 14.0523 15.6638 14.0357C15.4934 13.9504 14.655 13.538 14.4989 13.481C14.3426 13.4243 14.2289 13.3958 14.1152 13.5665C14.0015 13.7369 13.6749 14.1209 13.5756 14.2346C13.4762 14.3486 13.3766 14.3627 13.2062 14.2775C13.1782 14.2634 13.1401 14.2469 13.0929 14.2264C12.8527 14.1222 12.3796 13.9168 11.8351 13.4313C11.3282 12.9793 10.9861 12.4213 10.8865 12.2506C10.7872 12.0802 10.8759 11.9879 10.9614 11.9029C11.0117 11.8528 11.0695 11.7824 11.1276 11.7119L11.1276 11.7119C11.1578 11.6752 11.188 11.6384 11.2173 11.6044C11.2897 11.5196 11.3211 11.4554 11.3639 11.3679L11.3875 11.32C11.4445 11.2063 11.416 11.1067 11.3734 11.0212C11.3554 10.9851 11.2858 10.8137 11.2001 10.6024L11.2001 10.6024C11.0829 10.3136 10.9354 9.95023 10.8479 9.75556Z" fill="white"/>
</g>
<defs>
<clipPath id="clip0_366_3235">
<rect width="24" height="24" fill="white" transform="translate(0.527344 0.580078)"/>
</clipPath>
</defs>
</svg>
